HIERARCHY
ROOT Hips
{
	OFFSET 0.00000 0.00000 0.00000
	CHANNELS 6 Xposition Yposition Zposition Zrotation Yrotation Xrotation 
	JOINT LHipJoint
	{
		OFFSET 0 0 0
		CHANNELS 3 Zrotation Yrotation Xrotation
		JOINT LeftHip
		{
			OFFSET 1.62964 -1.40469 0.78906
			CHANNELS 3 Zrotation Yrotation Xrotation
			JOINT LeftKnee
			{
				OFFSET 2.29640 -6.30932 0.00000
				CHANNELS 3 Zrotation Yrotation Xrotation
				JOINT LeftAnkle
				{
					OFFSET 2.29451 -6.30412 0.00000
					CHANNELS 3 Zrotation Yrotation Xrotation
					JOINT LeftToe
					{
						OFFSET 0.03611 -0.09921 1.56387
						CHANNELS 3 Zrotation Yrotation Xrotation
						End Site
						{
							OFFSET 0.00000 -0.00000 0.80291
						}
					}
				}
			}
		}
	}
	JOINT RHipJoint
	{
		OFFSET 0 0 0
		CHANNELS 3 Zrotation Yrotation Xrotation
		JOINT RightHip
		{
			OFFSET -1.73712 -1.40469 0.78906
			CHANNELS 3 Zrotation Yrotation Xrotation
			JOINT RightKnee
			{
				OFFSET -2.28137 -6.26801 0.00000
				CHANNELS 3 Zrotation Yrotation Xrotation
				JOINT RightAnkle
				{
					OFFSET -2.28681 -6.28298 0.00000
					CHANNELS 3 Zrotation Yrotation Xrotation
					JOINT RightToe
					{
						OFFSET -0.15927 -0.43759 1.61103
						CHANNELS 3 Zrotation Yrotation Xrotation
						End Site
						{
							OFFSET -0.00000 -0.00000 0.84630
						}
					}
				}
			}
		}
	}
	JOINT lowerback
	{
		OFFSET 0 0 0
		CHANNELS 3 Zrotation Yrotation Xrotation
		JOINT Chest
		{
			OFFSET -0.04227 2.04338 -0.00225
			CHANNELS 3 Zrotation Yrotation Xrotation
			JOINT Chest2
			{
				OFFSET -0.02148 2.04482 -0.04273
				CHANNELS 3 Zrotation Yrotation Xrotation
				JOINT lowerneck
				{
					OFFSET 0 0 0
					CHANNELS 3 Zrotation Yrotation Xrotation
					JOINT Neck
					{
						OFFSET 0.09180 1.44629 0.19359
						CHANNELS 3 Zrotation Yrotation Xrotation
						JOINT Head
						{
							OFFSET 0.00887 1.40645 0.14750
							CHANNELS 3 Zrotation Yrotation Xrotation
							End Site
							{
								OFFSET -0.00669 1.50671 0.03707
							}
						}
					}
				}
				JOINT LeftCollar
				{
					OFFSET 0 0 0
					CHANNELS 3 Zrotation Yrotation Xrotation
					JOINT LeftShoulder
					{
						OFFSET 2.17674 1.86763 -0.06520
CHANNELS 3 Zrotation Xrotation Yrotation
						JOINT LeftElbow
						{
OFFSET 0 -4.657760 0.000000
CHANNELS 3 Zrotation Xrotation Yrotation
							JOINT LeftWrist
							{
OFFSET 0 -3.555390 0.000000
CHANNELS 3 Zrotation Xrotation Yrotation
								JOINT lhand
								{
									OFFSET 0 0 0
CHANNELS 3 Zrotation Xrotation Yrotation
									JOINT LFingers
									{
OFFSET 0 -0.707260 0.000000
CHANNELS 3 Zrotation Xrotation Yrotation
										End Site
										{
OFFSET 0 -0.570220 0.000000
										}
									}
								}
								JOINT LThumb
								{
OFFSET 0 0.000000 0.000000
CHANNELS 3 Zrotation Xrotation Yrotation
									End Site
									{
OFFSET 0 -0.578920 0.578920
									}
								}
							}
						}
					}
				}
				JOINT RightCollar
				{
					OFFSET 0 0 0
					CHANNELS 3 Zrotation Yrotation Xrotation
					JOINT RightShoulder
					{
						OFFSET -2.80694 1.55459 -0.32496
CHANNELS 3 Zrotation Xrotation Yrotation
						JOINT RightElbow
						{
OFFSET 0 -4.719250 -0.000000
CHANNELS 3 Zrotation Xrotation Yrotation
							JOINT RightWrist
							{
OFFSET 0 -3.569900 0.000000
CHANNELS 3 Zrotation Xrotation Yrotation
								JOINT rhand
								{
									OFFSET 0 0 0
CHANNELS 3 Zrotation Xrotation Yrotation
									JOINT RFingers
									{
OFFSET 0 -0.507760 0.000000
CHANNELS 3 Zrotation Xrotation Yrotation
										End Site
										{
OFFSET 0 -0.409370 0.000000
										}
									}
								}
								JOINT RThumb
								{
OFFSET 0 0.000000 0.000000
CHANNELS 3 Zrotation Xrotation Yrotation
									End Site
									{
OFFSET 0 -0.415620 0.415620
									}
								}
							}
						}
					}
				}
			}
		}
	}
}
MOTION
Frames: 12
Frame Time: 0.008333333333333333
8.845700 16.314700 30.683200 173.538000 -1.320300 -157.412000 0.000000 0.000000 0.000000 -25.919700 -15.514400 -13.619400 0.097300 2.011500 5.537400 0.205700 -0.005100 -8.564600 3.126100 -10.896400 -31.931300 0.000000 0.000000 0.000000 10.399800 16.457100 -14.396500 -0.205800 -2.920900 8.058700 -2.305100 -4.253600 -30.440200 -0.997100 6.354600 -17.816800 -12.242700 -1.698900 -23.646600 -1.187700 0.689400 -1.144700 5.841600 -0.534900 11.851000 -2.111600 -1.119300 -3.446500 2.465300 -2.044100 11.953000 1.095600 -1.146300 4.631600 0.000000 0.000000 0.000000 2.273100 0.149200 -16.943300 14.423200 -23.336500 2.993700 23.779100 -2.364100 12.399400 0.000000 0.000000 0.000000 -7.125000 0.000000 0.000000 -2.401900 16.478200 -1.623400 0.000000 0.000000 0.000000 1.842200 2.049700 5.987900 -15.472600 -24.800300 -3.421700 -12.496400 10.488100 55.527600 0.000000 0.000000 0.000000 7.125000 0.000000 -0.000000 76.811900 76.438100 -62.884900
8.847405 16.363029 30.680902 178.061018 -3.189547 -155.127513 0.000000 0.000000 0.000000 -19.174236 -16.311228 -17.122553 0.127024 2.291613 6.312584 0.206589 0.155155 -8.642874 3.146410 -10.928347 -32.038631 0.000000 0.000000 0.000000 15.298921 17.979079 -17.162197 -0.250793 -3.217542 8.885474 -2.347202 -4.580559 -30.849881 -0.993023 6.342147 -17.780554 -7.125730 -1.019261 -26.290735 -0.200745 0.164605 -1.751401 3.872879 -0.565958 12.680739 -1.581617 -1.341078 -3.311521 2.244486 -2.313465 11.407970 0.912885 -1.254002 4.399297 0.000000 0.000000 0.000000 2.869943 -0.011648 -17.539179 14.706278 -23.734840 3.107035 22.676068 -3.165079 12.632889 0.000000 0.000000 0.000000 -7.125000 0.000000 0.000000 -3.177306 16.340330 -2.159387 0.000000 0.000000 0.000000 2.387823 1.962679 5.770199 -15.491576 -24.826466 -3.429705 -12.638421 10.873542 55.538793 0.000000 0.000000 0.000000 7.125000 0.000000 0.000000 76.843254 76.492210 -62.975257
8.849737 16.377246 30.683236 179.676668 -3.852135 -154.163548 0.000000 0.000000 0.000000 -16.691063 -16.658152 -18.586784 0.140247 2.413668 6.650408 0.207720 0.220363 -8.691187 3.111959 -10.873836 -31.855804 0.000000 0.000000 0.000000 16.993085 18.416366 -18.550103 -0.282325 -3.415906 9.439073 -2.384624 -4.470882 -31.024743 -0.990587 6.334567 -17.758347 -5.130587 -0.694673 -27.375283 -0.031433 0.053385 -1.985104 2.889556 -0.531255 13.025788 -1.024567 -1.556873 -3.138620 2.005338 -2.572457 10.819951 0.723320 -1.358422 4.143739 0.000000 0.000000 0.000000 3.429153 -0.178334 -18.028818 14.985737 -24.125557 3.220466 21.527683 -3.827734 12.872699 0.000000 0.000000 0.000000 -7.125000 0.000000 0.000000 -3.981854 16.199131 -2.721090 0.000000 0.000000 0.000000 2.930841 1.836626 5.511054 -15.494388 -24.830389 -3.430908 -12.715308 11.211944 55.540722 0.000000 0.000000 0.000000 7.125000 0.000000 0.000000 76.843248 76.521039 -63.007234
8.852159 16.372498 30.687338 179.720698 -3.852363 -153.915651 0.000000 0.000000 0.000000 -16.523267 -16.739663 -18.936581 0.143770 2.443570 6.733238 0.208085 0.227012 -8.701732 3.091739 -10.841766 -31.748332 0.000000 0.000000 0.000000 16.989424 18.070273 -19.093913 -0.287376 -3.444627 9.519459 -2.383117 -4.049262 -30.819982 -0.990283 6.333516 -17.755191 -4.830406 -0.559749 -27.633911 -0.301567 0.172500 -2.010009 2.448894 -0.458799 13.127055 -0.449600 -1.767826 -2.941398 1.748796 -2.822216 10.197781 0.528984 -1.460412 3.871368 0.000000 0.000000 0.000000 3.954802 -0.349426 -18.481857 15.245896 -24.487197 3.327350 20.351239 -4.312289 13.119589 0.000000 0.000000 0.000000 -7.125000 0.000000 0.000000 -4.803328 16.052120 -3.300858 0.000000 0.000000 0.000000 3.472171 1.670423 5.193642 -15.482135 -24.813525 -3.425755 -12.734824 11.517555 55.505715 0.000000 0.000000 0.000000 7.125000 0.000000 0.000000 76.694659 76.524228 -62.867414
8.854012 16.366198 30.689784 179.736264 -3.817451 -153.685868 0.000000 0.000000 0.000000 -16.423422 -16.765383 -19.238042 0.145326 2.456393 6.768817 0.206381 0.216115 -8.662076 3.172386 -10.968887 -32.175210 0.000000 0.000000 0.000000 17.034565 17.257731 -19.394484 -0.247869 -3.202836 8.844045 -2.297356 -3.447750 -30.028342 -0.992877 6.341521 -17.778689 -4.577941 -0.423065 -27.916915 -0.573823 0.311334 -2.014679 2.040993 -0.380599 13.265741 0.133234 -1.975001 -2.734964 1.474761 -3.063488 9.549941 0.332112 -1.560850 3.588957 0.000000 0.000000 0.000000 4.449502 -0.523468 -18.982043 15.465895 -24.791030 3.418967 19.166151 -4.556452 13.375019 0.000000 0.000000 0.000000 -7.125000 0.000000 0.000000 -5.627805 15.895794 -3.890511 0.000000 0.000000 0.000000 4.012828 1.459764 4.792856 -15.455080 -24.776167 -3.414340 -12.702432 11.805673 55.396754 0.000000 0.000000 0.000000 7.125000 0.000000 0.000000 76.241245 76.499471 -62.402585
8.854171 16.355872 30.695267 179.722876 -3.726963 -153.324736 0.000000 0.000000 0.000000 -16.324990 -16.861086 -19.705807 0.148507 2.483270 6.843166 0.206936 0.222097 -8.675383 3.200422 -11.012610 -32.322441 0.000000 0.000000 0.000000 17.041149 16.270622 -19.691877 -0.191554 -2.807381 7.743654 -2.157785 -2.770112 -28.854873 -1.067431 6.566252 -18.437180 -4.492416 -0.237019 -28.269336 -0.832520 0.561319 -2.039757 1.787955 -0.265253 13.411205 0.792546 -2.377717 -2.417095 0.942619 -3.551428 8.925758 0.037505 -1.795249 3.289033 0.000000 0.000000 0.000000 4.882624 -0.778579 -19.830303 15.587735 -24.958358 3.470190 18.479484 -4.307986 13.795482 0.000000 0.000000 0.000000 -7.125000 0.000000 0.000000 -6.109785 15.521400 -4.278338 0.000000 0.000000 0.000000 4.519589 1.230815 4.283813 -15.467217 -24.792902 -3.419449 -12.671806 11.944505 55.248952 0.000000 0.000000 0.000000 7.125000 0.000000 0.000000 75.628236 76.468852 -61.779432
8.854961 16.344855 30.700319 179.668679 -3.605708 -152.951267 0.000000 0.000000 0.000000 -16.279781 -16.942904 -20.184692 0.151948 2.511694 6.921989 0.209079 0.204040 -8.712437 3.171754 -10.967720 -32.171414 0.000000 0.000000 0.000000 17.031859 15.162456 -20.048394 -0.143219 -2.426220 6.685653 -1.653317 -2.900166 -25.215550 -1.982129 8.517972 -24.501066 -4.783266 -0.258583 -28.586815 -0.722950 0.595488 -2.153765 2.095071 -0.282690 13.436205 0.887531 -2.670547 -1.916698 0.371176 -3.863298 8.251074 -0.157394 -1.961894 2.949942 0.000000 0.000000 0.000000 4.609759 -0.729940 -20.674905 15.631058 -25.017839 3.488447 19.796242 -3.271106 13.570380 0.000000 0.000000 0.000000 -7.125000 0.000000 0.000000 -5.196195 15.630705 -3.629335 0.000000 0.000000 0.000000 4.302543 1.253790 4.286828 -15.505416 -24.845431 -3.435491 -12.658089 11.771283 55.143382 0.000000 0.000000 0.000000 7.125000 0.000000 0.000000 75.189892 76.449486 -61.337271
8.855353 16.335230 30.702215 179.638240 -3.500072 -152.694902 0.000000 0.000000 0.000000 -16.243237 -17.019528 -20.489505 0.153883 2.527471 6.965814 0.211834 0.221808 -8.776565 3.150009 -10.933478 -32.056445 0.000000 0.000000 0.000000 17.054773 14.285205 -20.300830 -0.111010 -2.148140 5.915115 -1.097316 -3.407983 -21.288880 -3.088164 10.836215 -31.729795 -5.154304 -0.375896 -28.808794 -0.439398 0.504545 -2.278876 2.601838 -0.364335 13.402152 0.730776 -2.864898 -1.348528 -0.164935 -4.036293 7.526135 -0.286343 -2.065490 2.589849 0.000000 0.000000 0.000000 4.027470 -0.529870 -21.364307 15.675801 -25.078915 3.507538 21.668179 -2.125854 13.069993 0.000000 0.000000 0.000000 -7.125000 0.000000 0.000000 -3.893795 15.975447 -2.677964 0.000000 0.000000 0.000000 3.753413 1.409094 4.581526 -15.553718 -24.911798 -3.455796 -12.662552 11.456798 55.082244 0.000000 0.000000 0.000000 7.125000 0.000000 0.000000 74.934484 76.442530 -61.084895
8.853203 16.330635 30.695989 179.753132 -3.494068 -152.792745 0.000000 0.000000 0.000000 -16.129828 -17.114332 -20.278920 0.151066 2.504567 6.902216 0.213539 0.392366 -8.879375 3.252596 -11.092918 -32.594137 0.000000 0.000000 0.000000 17.198869 14.300549 -20.134348 -0.109082 -2.129832 5.864489 -1.087161 -3.461352 -21.227506 -3.145387 10.926646 -32.033108 -5.052162 -0.369596 -28.824878 -0.353341 0.472894 -2.267387 2.630672 -0.375083 13.427502 0.929502 -3.000841 -0.922317 -0.546597 -4.164749 6.753397 -0.423249 -2.127531 2.241913 0.000000 0.000000 0.000000 3.891009 -0.478280 -21.639380 15.866373 -25.339089 3.588629 21.360048 -2.132748 13.020849 0.000000 0.000000 0.000000 -7.125000 0.000000 0.000000 -4.104380 16.058540 -2.816130 0.000000 0.000000 0.000000 3.620658 1.465650 4.735258 -15.585220 -24.955012 -3.469138 -12.687902 11.314555 55.066308 0.000000 0.000000 0.000000 7.125000 0.000000 0.000000 74.863696 76.449720 -61.025151
8.853537 16.328052 30.693051 179.911646 -3.542693 -152.891930 0.000000 0.000000 0.000000 -15.971253 -17.053504 -20.178264 0.150800 2.502400 6.896267 0.214774 0.396084 -8.906146 3.460213 -11.402420 -33.652752 0.000000 0.000000 0.000000 17.415782 14.365689 -19.937197 -0.106216 -2.101591 5.786481 -1.082240 -3.505056 -21.206868 -3.160598 10.950636 -32.113543 -4.898948 -0.367658 -28.800293 -0.276813 0.420103 -2.252609 2.610582 -0.390596 13.437752 1.195205 -3.142890 -0.456578 -0.934232 -4.309110 5.938244 -0.567941 -2.195210 1.878071 0.000000 0.000000 0.000000 3.845819 -0.463669 -21.960088 16.010839 -25.535171 3.650728 21.410562 -2.442517 13.258608 0.000000 0.000000 0.000000 -7.125000 0.000000 0.000000 -4.079402 15.800906 -2.821549 0.000000 0.000000 0.000000 3.562330 1.464020 4.877715 -15.594844 -24.968227 -3.473152 -12.715735 11.202513 55.007889 0.000000 0.000000 0.000000 7.125000 0.000000 0.000000 74.616471 76.451407 -60.790783
8.854419 16.327948 30.691611 179.924621 -3.517565 -152.950432 0.000000 0.000000 0.000000 -15.989188 -17.002517 -20.101629 0.149604 2.492627 6.869167 0.214888 0.406659 -8.912768 3.613156 -11.626449 -34.423743 0.000000 0.000000 0.000000 17.420517 14.480402 -19.795477 -0.104488 -2.084641 5.739590 -1.081372 -3.555545 -21.225826 -3.143339 10.923480 -32.022369 -4.897875 -0.395123 -28.781768 -0.252372 0.382505 -2.240663 2.623729 -0.407555 13.445146 1.484193 -3.277331 -0.013182 -1.324264 -4.447959 5.105919 -0.714971 -2.258777 1.516980 0.000000 0.000000 0.000000 3.824557 -0.490940 -22.235340 16.113582 -25.674332 3.695090 21.601470 -2.740839 13.565681 0.000000 0.000000 0.000000 -7.125000 0.000000 0.000000 -3.961816 15.454727 -2.768895 0.000000 0.000000 0.000000 3.530581 1.458621 5.036561 -15.615790 -24.996946 -3.482005 -12.752941 11.131232 54.930641 0.000000 0.000000 0.000000 7.125000 0.000000 0.000000 74.288918 76.453508 -60.480523
8.855438 16.329500 30.691169 179.824641 -3.435727 -152.971768 0.000000 0.000000 0.000000 -16.135847 -16.988123 -20.035806 0.147439 2.474830 6.819764 0.213747 0.446051 -8.905754 3.675560 -11.715434 -34.732936 0.000000 0.000000 0.000000 17.267898 14.569819 -19.714517 -0.103055 -2.070414 5.700201 -1.083484 -3.564483 -21.249346 -3.098123 10.852037 -31.782808 -5.015230 -0.445613 -28.771573 -0.264010 0.355299 -2.234859 2.667324 -0.426622 13.447635 1.782486 -3.403889 0.413155 -1.717062 -4.580946 4.257533 -0.862588 -2.318456 1.158211 0.000000 0.000000 0.000000 3.800934 -0.544418 -22.452579 16.185922 -25.772068 3.726490 21.872839 -2.972186 13.886113 0.000000 0.000000 0.000000 -7.125000 0.000000 0.000000 -3.790674 15.085287 -2.679203 0.000000 0.000000 0.000000 3.511249 1.461698 5.198620 -15.653441 -25.048518 -3.497968 -12.791840 11.104183 54.855093 0.000000 0.000000 0.000000 7.125000 0.000000 0.000000 73.967783 76.456322 -60.177442
